<svg width="8" height="6" viewBox="0 0 8 6" fill="none" xmlns="http://www.w3.org/2000/svg">
<path d="M4.26562 4.95313C4.20312 5.03125 4.10937 5.07813 4 5.07813C3.90625 5.07813 3.8125 5.03125 3.73437 4.95313L0.703125 1.92188C0.640625 1.84375 0.59375 1.75 0.59375 1.65625C0.59375 1.54688 0.640625 1.45313 0.703125 1.39063L1.04687 1.04688C1.125 0.96875 1.21875 0.921875 1.3125 0.921875C1.42187 0.921875 1.51562 0.953125 1.57812 1.03125L4 3.45313L6.42187 1.03125C6.5 0.953125 6.59375 0.921875 6.6875 0.921875C6.79687 0.921875 6.89062 0.96875 6.95312 1.04688L7.29687 1.39063C7.375 1.45313 7.40625 1.54688 7.40625 1.65625C7.40625 1.75 7.375 1.84375 7.29687 1.92188L4.26562 4.95313Z" fill="#333"/>
</svg>
